<?xml version="1.0" encoding="UTF-8" standalone="no"?>
<!-- Created with Inkscape (http://www.inkscape.org/) -->

<svg
   width="11.699066mm"
   height="8.8887482mm"
   viewBox="0 0 11.699066 8.8887482"
   version="1.1"
   id="svg5"
   xml:space="preserve"
   xmlns="http://www.w3.org/2000/svg"
   xmlns:svg="http://www.w3.org/2000/svg"><defs
     id="defs2" /><g
     id="layer1"
     transform="translate(-100.18146,-224.66244)"><g
       id="g2415"
       transform="translate(22.665674,122.89807)"><g
         id="g1813-6-8"
         transform="matrix(0.03527778,0,0,-0.03527778,125.5454,164.50016)"
         style="fill:#ffffff;stroke:none"><g
           transform="matrix(0.06686806,0,0,0.06686806,-1335.3384,1585.225)"
           fill="#000000"
           stroke="none"
           id="g491-9-7-53-4"
           style="fill:#ffffff"><path
             d="m 1625,2471 c -48,-29 -113,-108 -151,-186 l -35,-72 -157,5 c -181,5 -262,-7 -455,-68 l -118,-38 -92,43 c -116,54 -180,69 -269,63 -147,-11 -226,-116 -215,-288 9,-148 76,-286 209,-426 90,-97 85,-72 54,-239 C 363,1085 352,841 370,690 423,262 659,73 1135,76 c 88,1 180,6 205,11 41,8 35,10 -75,17 -134,8 -280,34 -369,65 -212,75 -360,234 -417,448 -44,163 -35,480 20,732 l 19,84 -77,87 c -84,96 -130,167 -169,262 -23,55 -26,77 -27,175 v 113 l 32,31 c 62,62 187,46 347,-46 44,-25 87,-45 95,-45 9,0 44,13 78,30 161,76 324,107 502,95 207,-13 178,-24 221,84 55,135 130,206 193,182 66,-25 122,-187 138,-401 6,-74 13,-145 15,-158 2,-12 32,-52 66,-90 178,-196 342,-447 398,-608 27,-77 37,-214 21,-296 -42,-211 -192,-429 -406,-590 -117,-89 -19,-53 123,45 163,112 296,303 347,497 21,80 24,235 6,310 -38,157 -192,396 -429,665 -54,61 -62,75 -62,110 0,129 -44,339 -91,444 -65,143 -136,190 -214,142 z"
             id="path481-9-0-0-9"
             style="fill:#ffffff" /><path
             d="m 1627,2280 c -25,-29 -63,-118 -74,-171 -4,-21 0,-30 15,-38 33,-17 38,-14 57,37 10,26 29,62 43,80 21,29 29,33 58,30 39,-5 43,6 19,51 -26,51 -81,56 -118,11 z"
             id="path483-1-7-7-0"
             style="fill:#ffffff" /><path
             d="m 364,2039 c -25,-27 -31,-137 -11,-199 15,-44 15,-44 16,-12 2,55 27,92 62,92 30,0 110,-36 162,-72 16,-11 30,-18 32,-16 11,10 55,80 55,86 0,4 -28,26 -62,49 -137,92 -216,114 -254,72 z"
             id="path485-4-5-4-2"
             style="fill:#ffffff" /><path
             d="m 1506,1708 c 23,-75 80,-160 192,-287 46,-53 99,-118 117,-146 99,-154 102,-322 9,-456 -34,-50 -116,-92 -170,-87 -55,4 -54,25 4,94 62,75 88,123 103,192 19,95 -15,222 -70,262 -100,71 -315,39 -405,-60 -108,-120 -51,-283 146,-418 61,-42 75,-66 54,-96 -20,-31 -82,-40 -171,-26 -123,20 -202,78 -251,185 -50,110 -54,189 -19,403 28,168 30,226 14,301 -14,65 -31,77 -23,17 4,-24 3,-65 0,-89 l -7,-45 -42,45 c -51,56 -80,68 -120,52 l -29,-12 31,-24 c 35,-28 40,-62 13,-86 -20,-19 -67,-23 -77,-7 -16,26 -27,7 -22,-36 10,-97 70,-128 152,-80 24,15 51,36 59,48 9,12 18,19 21,17 3,-3 -4,-52 -14,-110 -41,-223 -37,-310 19,-425 38,-78 120,-156 205,-195 l 65,-29 47,-95 c 96,-196 194,-290 301,-290 50,0 57,3 86,37 54,63 82,201 70,355 l -6,93 50,55 c 93,101 125,254 84,392 -27,86 -58,135 -165,255 l -86,96 59,-5 c 78,-7 110,11 110,63 0,30 -12,66 -26,83 -2,2 -13,-4 -24,-14 -40,-37 -105,18 -70,60 16,19 7,19 -31,-1 -17,-8 -43,-35 -59,-60 l -29,-46 -31,44 c -18,23 -38,55 -46,71 -17,33 -28,36 -18,5 z M 1734,609 c 24,-19 26,-27 26,-92 -1,-243 -103,-325 -245,-195 -91,83 -141,211 -98,250 20,18 38,22 85,20 41,-3 91,-53 112,-111 10,-29 20,-50 23,-48 2,2 -2,34 -10,71 -15,72 -13,79 33,110 32,21 42,20 74,-5 z"
             id="path487-9-1-5-9"
             style="fill:#ffffff" /><path
             d="m 1818,210 c -98,-100 -232,-111 -433,-34 -17,6 -17,4 5,-20 42,-47 117,-79 195,-84 138,-9 224,39 270,151 8,20 14,37 13,36 -2,0 -24,-22 -50,-49 z"
             id="path489-9-9-5-2"
             style="fill:#ffffff" /></g><path
           id="path557-0-5-2-7"
           style="fill:#ffffff;stroke:#000000;stroke-width:0"
           d="m -1245.5397,1778.3375 a 124.7325,124.7325 0 0 1 -115.9294,-80.4788 115.62282,115.62282 0 0 0 106.8197,71.3692 115.62282,115.62282 0 0 0 115.6228,-115.6229 115.62282,115.62282 0 0 0 -25.8673,-72.6365 l 11.1654,-11.4418 a 124.7325,124.7325 0 0 1 32.9213,84.0783 124.7325,124.7325 0 0 1 -124.7325,124.7325 z m -115.9294,-168.9861 a 124.7325,124.7325 0 0 1 115.9294,-80.4789 124.7325,124.7325 0 0 1 50.6589,10.9382 l -9.638,9.8761 a 115.62282,115.62282 0 0 0 -50.1306,-11.7046 115.62282,115.62282 0 0 0 -106.8197,71.3692 z" /><path
           style="fill:#ffffff;fill-opacity:1;stroke:none;stroke-width:0.081033;stroke-dasharray:none;stroke-opacity:1"
           d="m -1094.5215,1540.5131 c -17.9394,2.51 -36.7804,7.3441 -53.801,13.8039 -27.6178,10.4817 -37.6165,13.9723 -49.4242,17.2543 -11.4171,3.1734 -21.8404,4.9795 -27.0283,4.6833 -1.4459,-0.082 -2.6196,-0.023 -2.608,0.1329 0.048,0.6547 7.9581,5.4109 12.316,7.4057 7.589,3.4739 15.7606,5.5161 24.4535,6.1113 1.8484,0.1266 6.2546,0.01 9.7916,-0.2678 8.0619,-0.6242 14.4518,-2.017 22.8377,-4.9783 7.7636,-2.7415 12.2854,-4.825 22.2347,-10.2452 30.9128,-16.8407 63.0095,-28.0392 94.9534,-33.129 3.5588,-0.567 7.6745,-1.1357 9.1461,-1.2637 2.6737,-0.2326 2.6723,-0.2331 -1.9812,-0.7339 -6.7546,-0.7269 -17.1922,-1.2332 -25.5318,-1.2385 -7.8937,0 -27.4494,1.3584 -35.3585,2.465 z"
           id="path2798-1-3-7-2" /><path
           style="fill:#ffffff;fill-opacity:1;stroke:none;stroke-width:0.081033;stroke-dasharray:none;stroke-opacity:1"
           d="m -1139.4399,1526.4234 c -18.105,0.5744 -37.3554,3.3629 -54.9698,7.9628 -28.5815,7.4638 -38.8965,9.8635 -50.9878,11.8621 -11.6914,1.9325 -22.2481,2.612 -27.3745,1.7619 -1.4287,-0.237 -2.602,-0.3032 -2.6072,-0.1472 -0.022,0.6561 7.3329,6.232 11.4521,8.6821 7.1733,4.2666 15.0792,7.1722 23.6584,8.6949 1.8242,0.3238 6.2179,0.6759 9.7639,0.7824 8.0825,0.2428 14.5847,-0.4578 23.2395,-2.504 8.0126,-1.8943 12.7316,-3.4816 23.204,-7.8051 32.5386,-13.4333 65.65,-21.1301 97.9552,-22.7697 3.5991,-0.1826 7.7521,-0.3073 9.2289,-0.277 2.6832,0.055 2.6819,0.054 -1.8912,-0.9418 -6.638,-1.4461 -16.9613,-3.0673 -25.2524,-3.9656 -7.8477,-0.8502 -27.437,-1.5891 -35.4191,-1.3358 z"
           id="path2798-7-9-8-86-8" /></g></g></g></svg>
