<?xml version="1.0" encoding="UTF-8" standalone="no"?>
<!-- Created with Inkscape (http://www.inkscape.org/) -->

<svg
   width="11.69907mm"
   height="8.8886795mm"
   viewBox="0 0 11.69907 8.8886795"
   version="1.1"
   id="svg5"
   xml:space="preserve"
   sodipodi:docname="Quokka_logo_wip.svg"
   inkscape:version="1.2 (dc2aedaf03, 2022-05-15)"
   inkscape:export-filename="QuokkaDevLogo_Color.svg"
   inkscape:export-xdpi="96"
   inkscape:export-ydpi="96"
   xmlns:inkscape="http://www.inkscape.org/namespaces/inkscape"
   xmlns:sodipodi="http://sodipodi.sourceforge.net/DTD/sodipodi-0.dtd"
   xmlns="http://www.w3.org/2000/svg"
   xmlns:svg="http://www.w3.org/2000/svg"><sodipodi:namedview
     id="namedview7"
     pagecolor="#ffffff"
     bordercolor="#000000"
     borderopacity="0.25"
     inkscape:showpageshadow="2"
     inkscape:pageopacity="0.0"
     inkscape:pagecheckerboard="0"
     inkscape:deskcolor="#d1d1d1"
     inkscape:document-units="mm"
     showgrid="true"
     inkscape:zoom="0.84906002"
     inkscape:cx="-378.65403"
     inkscape:cy="611.85309"
     inkscape:window-width="2400"
     inkscape:window-height="1261"
     inkscape:window-x="2391"
     inkscape:window-y="-9"
     inkscape:window-maximized="1"
     inkscape:current-layer="layer1" /><defs
     id="defs2" /><g
     inkscape:label="Layer 1"
     inkscape:groupmode="layer"
     id="layer1"
     transform="translate(57.546049,-37.602271)"><g
       id="g1181"
       inkscape:export-filename="QuokkaDevLogo_BG_Transparent.png"
       inkscape:export-xdpi="1111.6091"
       inkscape:export-ydpi="1111.6091"
       transform="translate(-127.1406,-168.27432)"><g
         transform="matrix(0.00235896,0,0,-0.00235896,70.516386,212.68917)"
         fill="#000000"
         stroke="none"
         id="g491-9-7"
         style="fill:#006680"><path
           d="m 1625,2471 c -48,-29 -113,-108 -151,-186 l -35,-72 -157,5 c -181,5 -262,-7 -455,-68 l -118,-38 -92,43 c -116,54 -180,69 -269,63 -147,-11 -226,-116 -215,-288 9,-148 76,-286 209,-426 90,-97 85,-72 54,-239 C 363,1085 352,841 370,690 423,262 659,73 1135,76 c 88,1 180,6 205,11 41,8 35,10 -75,17 -134,8 -280,34 -369,65 -212,75 -360,234 -417,448 -44,163 -35,480 20,732 l 19,84 -77,87 c -84,96 -130,167 -169,262 -23,55 -26,77 -27,175 v 113 l 32,31 c 62,62 187,46 347,-46 44,-25 87,-45 95,-45 9,0 44,13 78,30 161,76 324,107 502,95 207,-13 178,-24 221,84 55,135 130,206 193,182 66,-25 122,-187 138,-401 6,-74 13,-145 15,-158 2,-12 32,-52 66,-90 178,-196 342,-447 398,-608 27,-77 37,-214 21,-296 -42,-211 -192,-429 -406,-590 -117,-89 -19,-53 123,45 163,112 296,303 347,497 21,80 24,235 6,310 -38,157 -192,396 -429,665 -54,61 -62,75 -62,110 0,129 -44,339 -91,444 -65,143 -136,190 -214,142 z"
           id="path481-9-0"
           style="fill:#006680" /><path
           d="m 1627,2280 c -25,-29 -63,-118 -74,-171 -4,-21 0,-30 15,-38 33,-17 38,-14 57,37 10,26 29,62 43,80 21,29 29,33 58,30 39,-5 43,6 19,51 -26,51 -81,56 -118,11 z"
           id="path483-1-7"
           style="fill:#006680" /><path
           d="m 364,2039 c -25,-27 -31,-137 -11,-199 15,-44 15,-44 16,-12 2,55 27,92 62,92 30,0 110,-36 162,-72 16,-11 30,-18 32,-16 11,10 55,80 55,86 0,4 -28,26 -62,49 -137,92 -216,114 -254,72 z"
           id="path485-4-5"
           style="fill:#006680" /><path
           d="m 1506,1708 c 23,-75 80,-160 192,-287 46,-53 99,-118 117,-146 99,-154 102,-322 9,-456 -34,-50 -116,-92 -170,-87 -55,4 -54,25 4,94 62,75 88,123 103,192 19,95 -15,222 -70,262 -100,71 -315,39 -405,-60 -108,-120 -51,-283 146,-418 61,-42 75,-66 54,-96 -20,-31 -82,-40 -171,-26 -123,20 -202,78 -251,185 -50,110 -54,189 -19,403 28,168 30,226 14,301 -14,65 -31,77 -23,17 4,-24 3,-65 0,-89 l -7,-45 -42,45 c -51,56 -80,68 -120,52 l -29,-12 31,-24 c 35,-28 40,-62 13,-86 -20,-19 -67,-23 -77,-7 -16,26 -27,7 -22,-36 10,-97 70,-128 152,-80 24,15 51,36 59,48 9,12 18,19 21,17 3,-3 -4,-52 -14,-110 -41,-223 -37,-310 19,-425 38,-78 120,-156 205,-195 l 65,-29 47,-95 c 96,-196 194,-290 301,-290 50,0 57,3 86,37 54,63 82,201 70,355 l -6,93 50,55 c 93,101 125,254 84,392 -27,86 -58,135 -165,255 l -86,96 59,-5 c 78,-7 110,11 110,63 0,30 -12,66 -26,83 -2,2 -13,-4 -24,-14 -40,-37 -105,18 -70,60 16,19 7,19 -31,-1 -17,-8 -43,-35 -59,-60 l -29,-46 -31,44 c -18,23 -38,55 -46,71 -17,33 -28,36 -18,5 z M 1734,609 c 24,-19 26,-27 26,-92 -1,-243 -103,-325 -245,-195 -91,83 -141,211 -98,250 20,18 38,22 85,20 41,-3 91,-53 112,-111 10,-29 20,-50 23,-48 2,2 -2,34 -10,71 -15,72 -13,79 33,110 32,21 42,20 74,-5 z"
           id="path487-9-1"
           style="fill:#006680" /><path
           d="m 1818,210 c -98,-100 -232,-111 -433,-34 -17,6 -17,4 5,-20 42,-47 117,-79 195,-84 138,-9 224,39 270,151 8,20 14,37 13,36 -2,0 -24,-22 -50,-49 z"
           id="path489-9-9"
           style="fill:#006680" /></g><path
         id="path557-0-5"
         style="fill:#006680;stroke:#000000;stroke-width:0"
         d="m 73.684284,205.87659 a 4.4002857,4.4002857 0 0 0 -4.089731,2.83911 4.0789164,4.0789164 0 0 1 3.768361,-2.51774 4.0789164,4.0789164 0 0 1 4.078916,4.07892 4.0789164,4.0789164 0 0 1 -0.912541,2.56245 l 0.393891,0.40364 a 4.4002857,4.4002857 0 0 0 1.16139,-2.96609 4.4002857,4.4002857 0 0 0 -4.400286,-4.40029 z m -4.089731,5.96146 a 4.4002857,4.4002857 0 0 0 4.089731,2.83911 4.4002857,4.4002857 0 0 0 1.787134,-0.38587 l -0.340007,-0.34841 a 4.0789164,4.0789164 0 0 1 -1.768497,0.41291 4.0789164,4.0789164 0 0 1 -3.768361,-2.51774 z" /><path
         style="fill:#006680;fill-opacity:1;stroke:none;stroke-width:0.00285866;stroke-dasharray:none;stroke-opacity:1"
         d="m 79.011871,214.26651 c -0.632862,-0.0885 -1.297531,-0.25909 -1.89798,-0.48697 -0.974294,-0.36977 -1.327026,-0.49291 -1.743576,-0.6087 -0.40277,-0.11195 -0.77048,-0.17566 -0.953498,-0.16521 -0.05101,0.003 -0.09241,8.1e-4 -0.092,-0.005 0.0017,-0.0231 0.280744,-0.19089 0.434481,-0.26126 0.267723,-0.12255 0.555999,-0.19459 0.862665,-0.21559 0.06521,-0.004 0.220648,-3.5e-4 0.345426,0.009 0.284406,0.022 0.509827,0.0712 0.805663,0.17562 0.273883,0.0967 0.433402,0.17021 0.784391,0.36143 1.090535,0.5941 2.222835,0.98916 3.349745,1.16872 0.125547,0.02 0.270739,0.0401 0.322654,0.0446 0.09432,0.008 0.09427,0.008 -0.06989,0.0259 -0.238287,0.0256 -0.606503,0.0435 -0.900705,0.0437 -0.278473,0 -0.968354,-0.0479 -1.24737,-0.087 z"
         id="path2798-1-3" /><path
         style="fill:#aad400;fill-opacity:1;stroke:none;stroke-width:0.00285866;stroke-dasharray:none;stroke-opacity:1"
         d="m 77.42725,214.76356 c -0.638704,-0.0203 -1.317816,-0.11863 -1.939213,-0.28091 -1.008291,-0.26331 -1.372182,-0.34796 -1.798736,-0.41847 -0.412447,-0.0682 -0.784864,-0.0921 -0.965712,-0.0622 -0.0504,0.008 -0.09179,0.0107 -0.09198,0.005 -7.76e-4,-0.0231 0.258689,-0.21985 0.404005,-0.30629 0.253058,-0.15051 0.531961,-0.25301 0.834616,-0.30673 0.06435,-0.0114 0.219353,-0.0239 0.344448,-0.0276 0.285133,-0.009 0.514516,0.0161 0.819838,0.0883 0.282667,0.0668 0.449143,0.12282 0.818586,0.27535 1.14789,0.4739 2.315986,0.74542 3.455642,0.80326 0.126968,0.006 0.273477,0.0108 0.325575,0.01 0.09466,-0.002 0.09461,-0.002 -0.06672,0.0332 -0.234174,0.051 -0.598357,0.10821 -0.890849,0.1399 -0.276849,0.03 -0.967916,0.0561 -1.249507,0.0471 z"
         id="path2798-7-9-8" /></g></g></svg>
